<?xml version="1.0" encoding="UTF-8" standalone="no"?>
<!-- Created with Inkscape (http://www.inkscape.org/) -->

<svg
   xmlns:dc="http://purl.org/dc/elements/1.1/"
   xmlns:cc="http://creativecommons.org/ns#"
   xmlns:rdf="http://www.w3.org/1999/02/22-rdf-syntax-ns#"
   xmlns:svg="http://www.w3.org/2000/svg"
   xmlns="http://www.w3.org/2000/svg"
   xmlns:sodipodi="http://sodipodi.sourceforge.net/DTD/sodipodi-0.dtd"
   xmlns:inkscape="http://www.inkscape.org/namespaces/inkscape"
   width="18"
   height="18"
   id="svg4703"
   version="1.1"
   inkscape:version="0.48.4 r9939"
   sodipodi:docname="page-indicator-inactive.svg">
  <defs
     id="defs4705">
    <linearGradient
       id="linearGradient3764">
      <stop
         style="stop-color:#ffffff;stop-opacity:0.23529412;"
         offset="0"
         id="stop3766" />
      <stop
         style="stop-color:#ffffff;stop-opacity:0.05882353;"
         offset="1"
         id="stop3768" />
    </linearGradient>
  </defs>
  <sodipodi:namedview
     id="base"
     pagecolor="#000000"
     bordercolor="#666666"
     borderopacity="1.0"
     inkscape:pageopacity="0.75294118"
     inkscape:pageshadow="2"
     inkscape:zoom="22.197802"
     inkscape:cx="1.6332652"
     inkscape:cy="8.2226733"
     inkscape:current-layer="layer1"
     showgrid="true"
     inkscape:grid-bbox="true"
     inkscape:document-units="px"
     inkscape:window-width="1600"
     inkscape:window-height="848"
     inkscape:window-x="0"
     inkscape:window-y="25"
     inkscape:window-maximized="1"
     inkscape:snap-bbox="true">
    <inkscape:grid
       type="xygrid"
       id="grid2991"
       empspacing="5"
       visible="true"
       enabled="true"
       snapvisiblegridlinesonly="true"
       color="#ffffff"
       opacity="0.1254902"
       empcolor="#ffffff"
       empopacity="0.25098039" />
  </sodipodi:namedview>
  <metadata
     id="metadata4708">
    <rdf:RDF>
      <cc:Work
         rdf:about="">
        <dc:format>image/svg+xml</dc:format>
        <dc:type
           rdf:resource="http://purl.org/dc/dcmitype/StillImage" />
        <dc:title></dc:title>
      </cc:Work>
    </rdf:RDF>
  </metadata>
  <g
     id="layer1"
     inkscape:label="Layer 1"
     inkscape:groupmode="layer"
     transform="translate(0,2)">
    <path
       transform="matrix(0.45514679,0,0,0.52102582,-941.7995,-325.84744)"
       d="m 2099.9808,638.83099 a 10.985409,9.5964489 0 1 1 -21.9708,0 10.985409,9.5964489 0 1 1 21.9708,0 z"
       sodipodi:ry="9.5964489"
       sodipodi:rx="10.985409"
       sodipodi:cy="638.83099"
       sodipodi:cx="2088.9954"
       id="path4711-4"
       style="opacity:0.08;fill:#ffffff;fill-opacity:1;stroke:none"
       sodipodi:type="arc" />
    <path
       style="opacity:0.13;fill:#ffffff;fill-opacity:1;stroke:none"
       d="M 9,1 C 5.686292,1 3,3.6862915 3,7 c 0,3.313708 2.686292,6 6,6 3.313708,0 6,-2.686292 6,-6 C 15,3.6862915 12.313708,1 9,1 z m 0,1 c 2.761424,0 5,2.2385763 5,5 0,2.761424 -2.238576,5 -5,5 C 6.238576,12 4,9.761424 4,7 4,4.2385763 6.238576,2 9,2 z"
       id="path3935"
       inkscape:connector-curvature="0" />
    <path
       style="opacity:0.15;fill:#000000;fill-opacity:1;stroke:none"
       d="M 9 2 C 5.1340068 2 2 5.1340068 2 9 C 2 12.865993 5.1340068 16 9 16 C 12.865993 16 16 12.865993 16 9 C 16 5.1340068 12.865993 2 9 2 z M 9 3 C 12.313709 3 15 5.6862915 15 9 C 15 12.313709 12.313709 15 9 15 C 5.6862915 15 3 12.313709 3 9 C 3 5.6862915 5.6862915 3 9 3 z "
       transform="translate(0,-2)"
       id="path3956" />
  </g>
</svg>
